<?xml version="1.0" standalone="no"?>
<!DOCTYPE svg PUBLIC "-//W3C//DTD SVG 20010904//EN"
 "http://www.w3.org/TR/2001/REC-SVG-20010904/DTD/svg10.dtd">
<svg version="1.0" xmlns="http://www.w3.org/2000/svg"
 width="1200.000000pt" height="361.000000pt" viewBox="0 0 1200.000000 361.000000"
 preserveAspectRatio="xMidYMid meet">

<g transform="translate(0.000000,361.000000) scale(0.100000,-0.100000)"
fill="#000000" stroke="none">
<path d="M3086 3380 c-191 -15 -521 -96 -781 -192 -324 -120 -466 -185 -770
-353 -351 -194 -686 -456 -892 -698 -105 -124 -156 -200 -197 -292 -68 -155
-83 -298 -46 -416 24 -75 28 -82 100 -140 127 -103 335 -103 630 0 104 36 150
55 313 133 70 34 130 58 133 55 4 -4 -8 -41 -25 -83 -21 -49 -30 -86 -27 -100
10 -37 63 -92 103 -105 35 -11 148 -7 201 7 51 14 14 -26 -116 -124 -523 -394
-1001 -775 -1051 -838 -26 -33 -17 -50 15 -29 14 9 124 93 244 188 121 95 296
231 389 302 93 72 224 173 291 225 391 305 473 366 550 413 47 28 104 66 127
85 49 39 92 51 185 52 37 0 78 4 93 10 31 12 44 -8 27 -44 -6 -13 -13 -44 -17
-68 -6 -39 -3 -49 18 -74 25 -29 26 -29 125 -27 82 2 112 8 175 32 100 38 294
150 459 264 126 87 139 75 37 -31 -67 -69 -134 -151 -142 -173 -8 -24 18 -56
58 -69 30 -10 42 -8 104 18 39 17 114 55 166 86 53 31 100 56 104 56 4 0 18
-12 32 -26 36 -39 83 -54 167 -54 65 0 298 34 402 59 19 5 69 14 110 21 210
36 245 45 248 66 6 41 -17 46 -152 34 -145 -13 -248 -4 -394 35 -112 30 -149
48 -164 80 -12 28 -27 30 -72 14 -27 -9 -40 -6 -98 20 -38 17 -68 37 -68 45 0
7 54 54 120 105 124 95 141 119 99 141 -23 13 -44 2 -107 -54 -54 -48 -194
-151 -215 -159 -27 -10 -250 109 -337 179 -48 39 -79 73 -96 106 -24 46 -25
88 -4 88 5 0 74 61 152 136 208 199 288 254 473 327 272 107 348 135 535 199
113 38 246 80 295 93 262 71 323 86 441 109 327 63 860 123 1004 113 89 -6
184 -39 222 -78 24 -24 28 -35 28 -86 0 -72 -32 -143 -118 -263 -73 -103 -103
-132 -162 -154 -74 -28 -338 -168 -445 -236 -222 -140 -498 -361 -639 -510
-67 -72 -146 -182 -146 -205 0 -16 33 -45 52 -45 22 0 329 154 364 182 16 14
52 37 79 53 58 32 260 183 355 264 36 31 162 151 280 267 119 118 233 221 255
232 60 30 212 65 250 58 18 -4 45 -18 59 -31 25 -23 27 -30 21 -73 -8 -52 -64
-155 -134 -242 -101 -127 -367 -365 -586 -524 -138 -100 -186 -165 -135 -181
26 -8 53 7 130 76 71 63 289 243 360 299 25 19 77 62 115 95 61 53 247 181
415 286 102 64 474 239 508 239 13 0 16 -19 4 -35 -4 -6 -50 -51 -102 -100
-52 -50 -180 -171 -283 -270 -104 -99 -192 -181 -197 -183 -5 -2 -45 -43 -89
-93 -88 -98 -101 -132 -57 -149 32 -12 74 1 148 45 33 19 63 35 67 35 4 0 102
57 217 126 115 70 247 148 294 173 47 26 145 84 219 129 74 46 136 80 139 77
3 -2 -37 -49 -89 -102 -171 -177 -229 -256 -229 -311 0 -42 33 -56 111 -49 51
4 90 19 207 76 79 39 148 71 153 71 17 0 9 -19 -20 -52 -16 -19 -32 -50 -36
-70 -6 -32 -4 -38 19 -54 45 -29 142 -12 356 61 52 18 109 38 126 45 27 12 36
10 85 -13 30 -14 79 -28 109 -31 64 -8 235 16 329 44 91 29 99 27 121 -25 28
-66 48 -71 205 -51 152 19 214 37 348 102 l98 47 91 -22 c50 -13 152 -27 226
-32 74 -6 139 -12 143 -14 4 -3 72 -7 151 -10 78 -3 179 -10 223 -15 44 -6
111 -10 150 -10 85 0 572 -46 635 -60 25 -5 149 -12 277 -15 189 -3 233 -2
243 10 19 23 -20 35 -117 35 -91 0 -254 12 -403 30 -256 30 -490 53 -610 60
-74 5 -155 11 -180 15 -25 3 -115 10 -200 15 -345 21 -496 42 -570 80 -50 25
-86 26 -99 1 -41 -75 -351 -173 -488 -154 -48 7 -59 12 -61 29 -4 28 3 33 158
100 244 105 380 213 342 270 -13 20 -70 44 -104 44 -45 -1 -125 -30 -191 -69
-66 -41 -192 -160 -232 -220 -28 -42 -35 -46 -125 -72 -164 -48 -395 -60 -407
-22 -3 7 15 22 38 34 92 47 325 196 366 235 43 41 53 70 31 92 -44 44 -201
-42 -383 -210 -38 -35 -83 -73 -100 -85 -67 -46 -349 -144 -459 -159 -69 -10
-72 14 -10 78 55 56 136 113 299 211 120 71 151 98 141 122 -12 31 -36 25
-154 -43 -100 -57 -348 -178 -608 -297 -116 -53 -161 -39 -110 33 65 92 357
389 459 466 29 23 37 35 35 55 -4 35 -40 40 -76 9 -15 -13 -61 -43 -102 -67
-41 -25 -120 -72 -175 -106 -55 -34 -160 -95 -233 -136 -73 -41 -190 -109
-260 -153 -70 -43 -174 -104 -232 -136 -58 -32 -126 -70 -152 -85 -34 -19 -48
-23 -48 -13 0 7 125 133 277 278 363 347 397 382 429 435 27 47 27 88 0 98
-14 6 -85 -18 -221 -72 -113 -46 -350 -172 -484 -258 -63 -40 -116 -71 -119
-69 -2 3 13 30 35 61 91 134 97 146 101 221 4 65 2 72 -24 104 -16 18 -47 41
-69 51 -39 17 -44 17 -125 -1 -47 -10 -93 -21 -102 -25 -28 -11 -22 17 13 61
39 49 72 113 94 186 16 50 17 64 6 112 -18 79 -46 116 -116 150 -83 41 -206
53 -368 38 -838 -80 -1308 -193 -2080 -501 -70 -28 -130 -51 -132 -51 -13 0 0
23 56 95 34 44 81 120 105 169 36 73 44 100 44 146 0 70 -32 139 -98 209 -114
121 -309 158 -676 131z m366 -54 c135 -25 206 -53 258 -105 25 -25 56 -67 68
-93 35 -76 30 -121 -28 -235 -88 -173 -243 -345 -394 -438 -118 -72 -235 -181
-269 -250 -30 -59 -52 -81 -252 -246 -82 -68 -172 -143 -199 -166 -54 -48 -73
-52 -99 -23 -45 53 -180 -3 -239 -98 -20 -33 -21 -68 -3 -127 5 -17 -9 -32
-82 -86 -200 -149 -334 -209 -466 -209 -125 0 -170 39 -133 116 9 19 16 43 16
53 0 29 95 147 147 183 205 140 410 309 419 345 10 37 -36 77 -79 69 -85 -17
-259 -167 -381 -329 -68 -91 -121 -126 -350 -230 -179 -83 -281 -120 -430
-158 -107 -27 -129 -30 -210 -23 -159 12 -231 55 -281 166 -24 54 -27 68 -21
129 9 88 49 225 88 303 30 61 135 198 238 312 56 62 288 268 347 308 17 11 82
57 145 101 145 103 481 295 675 386 120 56 276 119 295 119 7 0 37 11 65 25
69 31 387 128 533 161 105 23 354 50 490 52 30 1 90 -5 132 -12z m2343 -1035
c-94 -92 -215 -204 -271 -248 -147 -119 -374 -271 -508 -341 -111 -59 -146
-72 -146 -54 1 22 137 167 262 277 162 144 268 224 458 346 87 55 363 199 370
193 2 -3 -72 -81 -165 -173z m3468 -7 c23 -23 -96 -108 -249 -178 -153 -70
-164 -61 -46 40 114 97 265 168 295 138z m-6183 -229 c0 -21 81 -107 152 -162
32 -24 107 -69 168 -99 60 -31 110 -60 110 -65 0 -5 -19 -18 -42 -30 -24 -12
-75 -43 -114 -70 -188 -126 -436 -260 -529 -285 -62 -17 -167 -18 -183 -2 -20
20 -14 52 17 99 36 54 67 77 157 119 86 40 164 89 164 103 0 20 -33 47 -57 47
-32 0 -135 -53 -205 -105 -48 -36 -69 -44 -146 -59 -110 -20 -132 -20 -132 -2
0 16 42 54 259 234 84 70 197 164 250 209 94 80 131 99 131 68z m-982 -134
c-10 -24 -211 -181 -232 -181 -16 0 93 108 158 156 50 38 84 49 74 25z m382
-218 c0 -27 -96 -125 -117 -121 -35 6 -26 38 25 89 50 50 92 65 92 32z m1235
-41 c28 -15 50 -33 50 -39 0 -19 -125 -121 -185 -150 -30 -15 -89 -47 -130
-70 -127 -72 -143 -54 -50 56 107 128 215 231 241 231 13 0 47 -13 74 -28z
m258 -96 c34 -14 89 -30 121 -36 73 -15 108 -30 103 -44 -4 -13 -230 -54 -302
-55 -87 -2 -152 24 -141 55 11 29 107 104 134 104 13 0 51 -11 85 -24z"/>
</g>
</svg>
