<?xml version="1.0" standalone="no"?>
<!DOCTYPE svg PUBLIC "-//W3C//DTD SVG 20010904//EN"
 "http://www.w3.org/TR/2001/REC-SVG-20010904/DTD/svg10.dtd">
<svg version="1.0" xmlns="http://www.w3.org/2000/svg"
 width="639.000000pt" height="417.000000pt" viewBox="0 0 639.000000 417.000000"
 preserveAspectRatio="xMidYMid meet">
<metadata>
Created by potrace 1.16, written by Peter Selinger 2001-2019
</metadata>
<g transform="translate(0.000000,417.000000) scale(0.100000,-0.100000)"
fill="#000000" stroke="none">
<path d="M843 3524 c-3 -9 4 -61 17 -117 21 -96 21 -102 5 -112 -181 -105
-292 -297 -340 -585 -14 -82 -16 -138 -12 -279 8 -244 47 -424 143 -664 67
-166 126 -273 271 -490 l132 -198 -106 -103 c-62 -61 -104 -109 -101 -117 8
-25 35 -21 54 9 18 27 96 99 161 148 l28 22 33 -49 c49 -75 163 -219 172 -219
5 0 15 -3 24 -6 23 -9 21 10 -24 172 -21 79 -42 159 -45 178 l-7 34 102 61
c55 33 103 61 106 61 2 0 23 12 46 26 71 45 368 191 483 237 61 24 162 61 225
81 63 21 124 41 135 45 11 4 54 18 95 31 41 12 86 26 100 31 22 7 309 87 335
93 6 1 48 15 94 30 137 46 185 105 147 178 -14 26 -13 28 22 54 21 15 62 49
93 76 31 26 59 48 63 48 3 0 3 -12 0 -27 -8 -40 11 -80 48 -103 42 -26 63 -21
141 35 161 115 226 157 235 154 6 -3 0 -43 -15 -99 l-25 -95 23 -18 c23 -18
24 -18 41 3 10 13 20 32 22 44 2 11 9 45 15 74 16 79 14 141 -5 149 -28 11
-92 -17 -181 -78 -238 -164 -247 -166 -225 -31 23 138 -8 143 -133 23 -85 -82
-172 -147 -183 -137 -3 4 1 51 10 106 9 55 14 109 11 120 -12 45 -69 12 -139
-80 -21 -27 -41 -50 -44 -50 -3 0 2 39 12 88 19 94 23 169 9 191 -21 32 -85
-16 -286 -212 l-120 -118 -155 7 c-262 10 -510 43 -510 69 0 21 183 190 247
228 91 53 128 62 181 44 46 -16 65 -6 38 21 -9 9 -39 17 -74 20 -106 8 -225
-59 -370 -206 l-94 -95 -56 27 c-73 36 -146 90 -173 127 l-21 30 37 41 c60 65
79 119 72 202 -3 39 -15 97 -26 130 -20 57 -20 59 -2 85 31 42 150 153 231
213 319 239 730 326 808 171 41 -82 35 -158 -23 -280 -43 -93 -81 -148 -158
-229 -69 -74 -101 -94 -151 -94 -43 0 -55 -16 -22 -31 63 -29 154 28 261 164
114 144 172 282 162 384 -17 162 -157 240 -362 200 -246 -49 -497 -184 -696
-375 l-97 -92 -28 47 c-46 81 -140 198 -201 252 -32 29 -92 69 -132 89 -70 35
-81 37 -167 37 l-91 0 -12 62 c-13 72 -45 153 -61 153 -6 0 -13 -7 -17 -16z
m322 -272 c75 -38 168 -121 233 -209 59 -81 112 -169 112 -187 0 -8 -16 -40
-35 -72 -60 -100 -76 -186 -51 -283 9 -34 14 -67 11 -71 -8 -13 -184 -78 -230
-86 -64 -11 -77 -23 -24 -24 81 0 173 20 255 57 31 14 31 13 90 -44 38 -37 88
-72 139 -98 44 -21 81 -40 83 -41 2 -1 -9 -19 -23 -40 -121 -177 -137 -389
-34 -451 98 -60 198 -48 384 47 137 69 251 150 378 269 69 64 94 82 110 77 12
-2 68 -6 124 -7 74 -2 104 -6 107 -16 3 -7 18 -18 33 -24 22 -8 30 -7 40 7 12
16 19 16 79 5 142 -26 169 -73 77 -135 -38 -26 -143 -61 -508 -169 -281 -83
-533 -173 -708 -253 -145 -65 -420 -211 -514 -271 -30 -19 -56 -33 -58 -31 -6
5 -52 262 -74 408 -24 157 -52 377 -81 645 -32 293 -69 566 -105 780 -4 20 6
7 30 -40 37 -72 37 -69 3 25 -23 67 -58 207 -58 237 0 27 19 33 95 29 43 -2
78 -12 120 -34z m-271 -19 c25 -83 105 -641 151 -1058 44 -400 66 -558 111
-808 20 -109 34 -200 32 -201 -1 -1 -20 -14 -40 -29 -20 -15 -41 -27 -46 -27
-11 0 -183 252 -261 382 -204 341 -314 773 -281 1108 18 189 70 355 153 485
39 61 59 83 117 129 52 41 57 42 64 19z m665 -497 c16 -66 13 -136 -9 -181
-23 -49 -58 -90 -68 -81 -4 4 -7 49 -7 99 0 82 3 98 29 150 16 31 33 57 36 57
4 0 13 -20 19 -44z m1268 -496 l-22 -105 -105 4 c-58 2 -107 5 -110 8 -5 5 19
28 170 161 100 87 100 87 67 -68z m-954 -85 c73 -20 266 -43 435 -51 78 -4
142 -10 142 -15 0 -14 -175 -161 -255 -214 -150 -98 -305 -165 -385 -165 -47
0 -92 20 -114 52 -25 35 -21 149 7 228 26 72 90 180 108 180 6 0 34 -7 62 -15z"/>
<path d="M1220 1850 c-24 -24 -28 -101 -6 -120 8 -6 13 -17 10 -25 -12 -31 18
-23 56 15 33 33 40 47 40 79 0 34 -4 42 -32 55 -40 20 -44 20 -68 -4z"/>
<path d="M4312 3358 c-44 -72 -99 -309 -154 -662 -26 -170 -10 -152 -166 -187
l-102 -23 -83 27 c-108 36 -217 50 -268 37 -45 -12 -49 -27 -16 -58 48 -45
132 -66 259 -67 l117 0 64 -42 c35 -23 86 -62 113 -86 48 -44 49 -46 61 -128
15 -112 46 -206 83 -258 29 -39 42 -48 99 -66 l24 -7 -7 72 c-11 106 -37 179
-95 266 -51 77 -51 77 -51 159 0 45 3 103 6 128 6 45 7 46 68 68 96 36 215 92
289 137 70 43 83 49 72 32 -16 -26 -65 -303 -65 -368 0 -98 17 -137 72 -162
24 -11 50 -20 58 -20 40 0 181 87 258 160 25 23 28 14 12 -40 -17 -54 -14
-163 4 -198 40 -78 153 -133 275 -133 72 0 247 15 294 26 12 2 40 7 62 10 34
5 71 14 154 41 8 2 12 7 9 9 -3 3 -77 -4 -164 -15 -87 -12 -220 -22 -294 -23
-126 -2 -138 0 -185 23 -100 50 -114 109 -68 290 42 169 27 175 -124 48 -102
-85 -184 -141 -221 -151 -15 -3 -31 2 -50 18 -24 21 -26 28 -25 99 2 84 9 127
56 326 l31 135 63 64 c88 91 110 144 81 206 -15 34 -57 33 -98 -1 -37 -31 -60
-74 -90 -169 -21 -64 -27 -74 -81 -113 -32 -24 -91 -61 -131 -83 -79 -44 -238
-112 -245 -105 -12 12 47 326 104 559 45 188 53 257 29 257 -8 0 -23 -15 -34
-32z"/>
<path d="M4560 1723 c-249 -7 -696 -45 -980 -83 -468 -64 -889 -169 -1223
-306 -283 -116 -494 -236 -524 -299 -16 -34 -16 -36 4 -56 47 -47 191 -42 633
21 323 46 560 77 685 90 50 6 106 12 125 15 54 8 337 33 525 46 251 19 887 16
1115 -5 485 -43 879 -142 993 -250 35 -32 32 -45 -19 -73 -96 -55 -313 -80
-744 -89 -514 -9 -537 -11 -516 -31 19 -19 763 -6 981 17 326 35 449 104 354
200 -105 104 -422 193 -874 245 -253 29 -385 34 -815 30 -615 -4 -983 -36
-1760 -151 -428 -64 -635 -70 -635 -19 0 54 304 215 630 334 616 225 1603 356
2560 338 330 -6 503 -19 588 -43 95 -27 97 -28 97 -10 0 46 -92 60 -485 76
-240 9 -448 10 -715 3z"/>
</g>
</svg>
