<?xml version="1.0" standalone="no"?>
<!DOCTYPE svg PUBLIC "-//W3C//DTD SVG 20010904//EN"
 "http://www.w3.org/TR/2001/REC-SVG-20010904/DTD/svg10.dtd">
<svg version="1.0" xmlns="http://www.w3.org/2000/svg"
 width="880.000000pt" height="613.000000pt" viewBox="0 0 880.000000 613.000000"
 preserveAspectRatio="xMidYMid meet">

<g transform="translate(0.000000,613.000000) scale(0.100000,-0.100000)"
fill="#000000" stroke="none">
<path d="M2725 5691 c-33 -21 -94 -67 -135 -100 -41 -34 -131 -105 -200 -158
-571 -442 -829 -688 -1010 -963 -72 -110 -87 -145 -70 -165 23 -27 48 -17 71
28 134 261 567 688 1065 1050 63 45 103 39 104 -17 0 -41 -382 -538 -566 -736
-193 -207 -498 -587 -1082 -1342 -299 -388 -432 -589 -482 -731 -24 -68 -25
-95 -4 -125 22 -32 74 -29 144 9 63 34 237 162 316 233 29 25 54 46 55 46 2 0
4 -18 4 -40 1 -46 30 -91 68 -104 64 -23 215 58 385 206 46 40 101 88 122 106
l39 33 -25 -68 c-29 -84 -30 -123 -3 -157 39 -50 118 -31 239 57 135 99 425
357 766 681 240 228 504 470 504 461 0 -8 -116 -176 -179 -260 -25 -33 -86
-105 -136 -160 -49 -55 -130 -146 -179 -202 -74 -86 -102 -110 -165 -144 -384
-209 -712 -526 -1138 -1099 -203 -272 -489 -713 -577 -887 -37 -75 -47 -138
-24 -161 30 -30 113 -2 185 61 85 74 461 534 953 1167 251 323 496 630 628
788 105 125 112 130 306 198 165 57 441 119 465 104 7 -4 -76 -94 -197 -216
-115 -115 -230 -238 -257 -274 -56 -76 -95 -154 -95 -192 0 -62 64 -75 145
-29 45 26 285 194 377 264 l37 29 -24 -60 c-37 -92 -41 -132 -15 -165 67 -85
277 16 647 310 51 40 95 73 97 73 3 0 -13 -30 -35 -66 -46 -74 -93 -188 -110
-262 -15 -65 -5 -118 27 -138 61 -41 161 6 405 189 72 53 132 97 135 97 7 0
-300 -380 -606 -750 -157 -190 -345 -418 -418 -507 -73 -89 -136 -163 -141
-165 -42 -15 -803 -740 -883 -841 -29 -36 -30 -39 -13 -57 10 -11 23 -20 28
-20 29 0 716 638 877 814 50 55 264 247 520 466 473 406 691 599 930 823 85
80 156 145 157 143 1 -1 -4 -24 -12 -51 -21 -69 -19 -153 5 -192 22 -36 74
-56 124 -46 73 14 234 106 407 232 18 13 18 12 -1 -30 -28 -63 -27 -114 5
-135 24 -15 28 -15 69 0 55 21 159 94 251 176 l70 62 7 -48 c4 -31 16 -56 32
-73 54 -54 215 -35 364 44 l62 33 0 -82 c0 -174 75 -220 319 -196 123 11 148
22 136 59 -6 20 -10 20 -148 14 -211 -9 -237 5 -237 126 0 80 21 143 68 198
66 81 77 114 42 133 -15 8 -27 7 -50 -5 -32 -16 -90 -88 -90 -111 0 -24 -54
-65 -145 -109 -128 -61 -219 -80 -267 -54 -17 9 -19 17 -14 52 12 75 66 156
198 298 70 75 183 189 250 254 l123 117 105 -6 c272 -16 618 -171 725 -327 28
-39 30 -49 30 -128 0 -115 -22 -160 -134 -272 -127 -127 -271 -218 -696 -439
-251 -131 -361 -209 -421 -300 -36 -55 -40 -99 -12 -140 31 -46 70 -67 148
-79 98 -16 649 -13 1145 5 447 17 762 12 1059 -16 105 -10 126 -5 126 31 0 26
-10 29 -108 39 -221 23 -532 31 -1072 31 -570 -1 -923 9 -1065 30 -129 19
-147 56 -65 133 60 57 251 181 362 237 436 218 675 394 761 556 153 293 -45
554 -510 671 -65 17 -155 33 -201 37 -45 4 -82 9 -82 11 0 2 23 24 50 50 54
50 70 85 50 109 -24 29 -52 14 -144 -75 -85 -82 -96 -90 -132 -90 -40 0 -153
-16 -189 -27 -11 -3 46 62 126 143 80 82 160 170 178 196 38 57 81 146 81 170
0 21 -33 40 -54 32 -8 -3 -73 -74 -143 -157 -208 -247 -422 -495 -510 -589
-46 -49 -108 -121 -140 -161 -180 -228 -619 -557 -743 -557 -36 0 -40 2 -45
33 -14 73 51 248 131 352 21 28 31 34 50 29 40 -10 111 34 203 125 111 110
174 193 169 223 -4 32 -46 52 -90 44 -70 -13 -183 -108 -295 -249 -179 -225
-667 -675 -1433 -1321 -36 -31 -26 -18 231 294 341 413 909 1123 909 1135 0 2
-11 12 -25 21 -25 16 -25 16 -132 -86 -223 -213 -594 -492 -684 -515 -38 -9
-42 6 -24 77 28 112 106 253 211 383 123 152 136 173 123 197 -19 36 -53 18
-219 -118 -374 -307 -591 -453 -699 -470 l-40 -6 8 29 c27 94 107 261 142 298
44 46 150 193 176 243 16 30 16 36 3 60 -9 16 -40 39 -75 57 -54 27 -69 30
-145 28 -51 -1 -117 -10 -165 -23 -44 -12 -147 -39 -230 -60 -82 -21 -183 -50
-223 -64 -50 -17 -70 -21 -65 -11 5 7 62 73 129 147 127 140 195 229 413 545
106 153 150 208 216 269 117 106 151 184 94 214 -37 20 -71 -11 -169 -151 -49
-71 -109 -132 -332 -335 -150 -137 -390 -360 -533 -495 -287 -272 -509 -472
-631 -569 -96 -77 -192 -140 -212 -140 -49 0 62 255 242 554 53 87 96 165 96
171 0 19 -28 38 -45 32 -12 -5 -68 -84 -78 -111 -1 -4 -20 3 -40 17 -21 14
-61 33 -89 43 -68 22 -130 8 -229 -53 -145 -90 -227 -175 -365 -379 -81 -121
-181 -229 -299 -325 -94 -76 -222 -167 -267 -190 l-38 -19 0 21 c0 68 183 360
412 657 625 810 933 1193 1153 1432 137 149 236 272 479 600 237 318 299 420
300 493 1 57 -22 59 -99 8z m3453 -2289 c-29 -41 -529 -547 -612 -620 -88 -77
-202 -162 -218 -162 -17 0 -7 27 36 100 58 100 100 153 302 381 201 228 205
232 267 259 53 23 180 59 215 59 21 1 22 -1 10 -17z m-4560 -108 c28 -18 42
-53 42 -104 0 -34 -9 -50 -59 -108 -120 -140 -437 -409 -508 -433 -57 -19 -78
-10 -81 36 -7 97 220 454 363 571 75 61 182 78 243 38z m1720 -60 c48 -34 17
-101 -94 -203 -95 -88 -511 -391 -536 -391 -13 0 31 79 80 145 26 33 137 151
249 263 192 192 205 202 241 202 21 0 48 -7 60 -16z m1787 -105 c-62 -63 -95
-87 -95 -70 0 19 116 131 135 131 15 0 5 -14 -40 -61z m-2842 -153 c-10 -13
-88 -111 -174 -218 -85 -106 -276 -348 -424 -538 -549 -705 -847 -1067 -928
-1129 -29 -22 -54 -36 -55 -31 -9 24 181 338 377 625 411 602 767 1002 1106
1244 107 75 128 85 98 47z"/>
</g>
</svg>
