<?xml version="1.0" standalone="no"?>
<!DOCTYPE svg PUBLIC "-//W3C//DTD SVG 20010904//EN"
 "http://www.w3.org/TR/2001/REC-SVG-20010904/DTD/svg10.dtd">
<svg version="1.0" xmlns="http://www.w3.org/2000/svg"
 width="860.000000pt" height="624.000000pt" viewBox="0 0 860.000000 624.000000"
 preserveAspectRatio="xMidYMid meet">
<metadata>
Created by potrace 1.16, written by Peter Selinger 2001-2019
</metadata>
<g transform="translate(0.000000,624.000000) scale(0.100000,-0.100000)"
fill="#000000" stroke="none">
<path d="M4065 5767 c-33 -79 -48 -312 -30 -462 3 -27 10 -90 16 -140 16 -138
66 -436 99 -596 58 -278 175 -632 285 -866 14 -28 25 -55 25 -59 0 -3 29 -65
63 -138 65 -133 84 -186 69 -186 -5 0 -31 7 -58 15 -27 8 -59 15 -71 15 -12 0
-38 13 -56 30 -57 50 -71 37 -50 -44 8 -28 15 -91 16 -141 2 -87 1 -90 -21
-93 -28 -4 -105 50 -188 132 -65 65 -103 112 -173 214 -23 35 -62 86 -85 115
-41 50 -45 63 -85 232 -85 358 -173 648 -266 880 -7 17 -27 68 -46 115 -121
308 -316 489 -385 357 -34 -64 -28 -344 12 -552 57 -294 169 -647 290 -912 8
-17 14 -35 14 -39 0 -21 218 -462 279 -563 28 -46 51 -87 51 -91 0 -4 9 -15
20 -25 11 -10 20 -22 20 -26 0 -4 13 -27 28 -51 39 -60 53 -96 41 -103 -18
-12 -74 7 -104 35 -16 15 -51 43 -77 62 -67 50 -158 135 -158 147 0 6 -6 11
-12 11 -7 0 -38 24 -68 53 -30 29 -77 68 -103 87 -27 19 -57 43 -68 53 -10 9
-21 17 -24 17 -19 0 -104 75 -105 92 0 4 -20 50 -45 102 -25 53 -45 98 -45
101 0 4 -25 57 -55 120 -30 62 -55 116 -55 120 0 4 -18 46 -41 94 -22 47 -51
109 -64 136 -13 28 -39 84 -58 125 -51 110 -74 162 -82 189 -4 13 -20 47 -36
75 -16 28 -33 57 -37 65 -5 8 -14 17 -20 19 -12 4 -10 -10 8 -53 5 -11 21 -51
35 -90 25 -64 40 -98 110 -250 41 -90 106 -228 151 -321 24 -51 44 -94 44 -97
0 -3 17 -43 39 -89 86 -186 104 -229 98 -235 -4 -3 -33 3 -64 13 -82 26 -178
23 -245 -10 -57 -27 -131 -91 -168 -144 -40 -60 -87 -185 -100 -271 -29 -188
14 -388 135 -633 39 -77 41 -82 94 -168 19 -30 47 -77 63 -103 27 -46 148
-213 193 -266 152 -182 258 -278 369 -336 143 -75 233 -32 265 126 11 52 17
275 8 309 -2 8 -7 38 -11 65 -22 153 -143 603 -182 677 -8 14 -14 33 -14 41 0
7 -6 27 -14 43 -8 16 -18 41 -21 56 l-7 27 56 -19 c108 -38 134 -24 116 65 -6
31 -10 58 -8 61 2 2 20 -10 39 -26 20 -16 49 -32 65 -36 15 -4 56 -25 89 -46
53 -35 66 -39 107 -35 45 4 47 3 82 -45 56 -74 94 -63 74 23 -5 24 -14 60 -18
79 -4 19 -17 67 -28 105 -11 39 -23 108 -27 155 -3 47 -17 150 -31 230 -26
157 -29 190 -16 190 5 0 35 -39 68 -87 82 -123 234 -274 310 -309 97 -45 136
-28 129 56 -2 25 -7 76 -10 114 l-7 68 44 -7 c69 -12 164 -44 186 -63 19 -17
59 -106 108 -242 15 -41 33 -93 41 -115 41 -114 112 -225 144 -225 22 0 39 32
21 38 -7 2 -12 10 -12 19 0 15 -57 201 -89 288 -10 28 -28 83 -41 124 -22 72
-22 75 -4 88 11 8 24 28 30 45 6 18 15 33 20 35 5 2 25 -20 44 -49 19 -28 59
-81 88 -116 29 -36 69 -98 89 -139 38 -78 72 -101 58 -40 -19 86 -23 115 -24
205 -2 93 -1 99 29 144 24 36 47 55 108 86 135 70 219 99 502 171 107 27 215
57 240 66 25 9 133 38 240 66 107 27 238 62 290 78 52 16 122 36 155 46 119
33 334 107 450 155 39 16 147 59 240 95 94 37 231 97 305 134 74 37 147 71
161 74 27 7 44 31 33 48 -7 12 -34 11 -34 -1 0 -5 -6 -10 -14 -10 -7 0 -26
-12 -42 -26 -30 -27 -96 -57 -299 -138 -160 -64 -217 -86 -365 -141 -69 -25
-136 -51 -150 -57 -41 -17 -232 -80 -270 -88 -19 -5 -60 -15 -90 -25 -103 -30
-265 -75 -350 -97 -47 -11 -152 -41 -235 -65 -82 -24 -199 -55 -260 -69 -233
-55 -433 -126 -523 -187 -66 -44 -127 -112 -140 -154 -6 -21 -8 -66 -5 -99 5
-62 -6 -87 -26 -62 -5 7 -25 31 -44 53 -48 57 -131 175 -144 206 -7 17 -10 80
-8 173 5 206 -30 448 -97 686 -30 106 -157 483 -188 555 -5 11 -20 52 -33 90
-14 39 -45 127 -71 197 -25 70 -46 131 -46 135 0 37 -144 356 -230 508 -51 91
-100 112 -125 52z m160 -156 c36 -68 77 -151 92 -185 14 -33 34 -79 44 -101
10 -22 53 -143 94 -269 42 -126 82 -245 90 -265 7 -20 16 -45 21 -56 4 -11 8
-24 10 -30 1 -5 19 -55 38 -110 146 -404 193 -609 204 -880 7 -180 5 -255 -6
-255 -4 0 -40 67 -80 149 -92 192 -164 268 -149 157 7 -46 68 -250 120 -401
20 -55 32 -104 28 -108 -5 -4 -20 -2 -35 4 -25 12 -72 98 -168 309 -93 203
-119 263 -142 325 -14 39 -33 83 -41 98 -8 16 -15 35 -15 43 0 8 -4 22 -9 32
-12 22 -77 222 -91 282 -6 25 -18 72 -26 105 -29 118 -89 451 -99 550 -8 86
-17 157 -27 220 -5 39 -12 128 -14 198 -2 71 -5 131 -8 135 -2 4 0 50 5 102 8
80 13 98 32 112 21 17 23 17 44 -9 12 -15 52 -83 88 -152z m-987 -465 c123
-64 261 -333 401 -776 48 -152 118 -401 137 -490 48 -217 55 -263 46 -303 -8
-42 7 -153 43 -312 9 -38 20 -92 25 -120 4 -27 13 -63 19 -78 14 -36 15 -207
1 -207 -6 0 -14 10 -19 23 -5 12 -32 53 -60 90 -28 38 -60 85 -71 105 -11 20
-29 52 -40 70 -11 17 -29 47 -39 65 -33 54 -107 209 -156 323 -25 60 -50 118
-55 129 -5 11 -20 45 -33 75 -169 374 -304 909 -308 1218 -1 148 -1 151 26
177 28 29 45 31 83 11z m1417 -1446 c20 -39 45 -94 56 -123 11 -28 36 -82 55
-120 33 -67 39 -105 25 -157 -17 -62 -37 -24 -116 220 -30 93 -64 221 -65 243
0 19 13 1 45 -63z m-1660 -361 c22 -6 65 -22 96 -36 52 -23 58 -29 86 -91 17
-37 36 -89 42 -117 27 -113 35 -133 76 -192 88 -126 227 -543 294 -883 18 -88
18 -91 26 -170 4 -41 9 -84 11 -95 7 -38 -15 -225 -31 -254 -62 -122 -198 -75
-426 146 -66 65 -100 105 -219 268 -109 148 -191 288 -282 475 -100 208 -131
388 -96 555 20 96 37 152 51 173 5 7 17 26 26 42 41 74 132 150 221 183 25 9
83 7 125 -4z m1756 -135 c13 -16 42 -94 58 -154 7 -30 51 -182 67 -232 3 -10
0 -18 -6 -18 -11 0 -70 118 -70 140 0 6 -20 59 -45 118 -58 141 -63 162 -37
162 11 0 25 -7 33 -16z m-1425 -59 c40 -21 133 -126 134 -151 0 -12 11 -33 25
-48 29 -31 59 -88 69 -129 8 -35 -11 -44 -65 -28 -35 11 -139 97 -139 116 0 7
-12 35 -51 121 -11 22 -19 47 -19 55 0 8 -5 20 -11 26 -8 8 -8 17 0 32 14 25
20 26 57 6z"/>
</g>
</svg>
